<svg id="Layer_1" data-name="Layer 1" xmlns="http://www.w3.org/2000/svg" viewBox="0 0 100 100">
  <defs>
    <style>
      .m-cls-1 {
        fill: #fff;
      }

      .m-cls-2 {
        fill: #494949;
      }
    </style>
  </defs>
  <title>menu-icon</title>
  <g id="bottom">
    <rect class="m-cls-1" x="1.5" y="77.21" width="97" height="21.29" rx="8.04" ry="8.04"/>
    <path class="m-cls-2" d="M90.46,78.71A6.55,6.55,0,0,1,97,85.25v5.21A6.55,6.55,0,0,1,90.46,97H9.54A6.55,6.55,0,0,1,3,90.46V85.25a6.55,6.55,0,0,1,6.54-6.54H90.46m0-3H9.54A9.57,9.57,0,0,0,0,85.25v5.21A9.57,9.57,0,0,0,9.54,100H90.46A9.57,9.57,0,0,0,100,90.46V85.25a9.57,9.57,0,0,0-9.54-9.54h0Z" transform="translate(0 0)"/>
  </g>
  <g id="bottom-2" data-name="bottom">
    <rect class="m-cls-1" x="1.5" y="39.36" width="97" height="21.29" rx="8.04" ry="8.04"/>
    <path class="m-cls-2" d="M90.46,40.86A6.55,6.55,0,0,1,97,47.4V52.6a6.55,6.55,0,0,1-6.54,6.54H9.54A6.55,6.55,0,0,1,3,52.6V47.4a6.55,6.55,0,0,1,6.54-6.54H90.46m0-3H9.54A9.57,9.57,0,0,0,0,47.4V52.6a9.57,9.57,0,0,0,9.54,9.54H90.46A9.57,9.57,0,0,0,100,52.6V47.4a9.57,9.57,0,0,0-9.54-9.54h0Z" transform="translate(0 0)"/>
  </g>
  <g id="bottom-3" data-name="bottom">
    <rect class="m-cls-1" x="1.5" y="1.5" width="97" height="21.29" rx="8.04" ry="8.04"/>
    <path class="m-cls-2" d="M90.46,3A6.55,6.55,0,0,1,97,9.54v5.21a6.55,6.55,0,0,1-6.54,6.54H9.54A6.55,6.55,0,0,1,3,14.75V9.54A6.55,6.55,0,0,1,9.54,3H90.46m0-3H9.54A9.57,9.57,0,0,0,0,9.54v5.21a9.57,9.57,0,0,0,9.54,9.54H90.46A9.57,9.57,0,0,0,100,14.75V9.54A9.57,9.57,0,0,0,90.46,0h0Z" transform="translate(0 0)"/>
  </g>
</svg>
