<svg id="Layer_1" data-name="Layer 1" xmlns="http://www.w3.org/2000/svg" viewBox="0 0 100 100">
  <defs>
    <style>
      .cls-1 {
        fill: #fff;
      }
    </style>
  </defs>
  <title>menu-icon</title>
  <g id="bottom">
    <rect class="cls-1" x="1" y="76.71" width="98" height="22.29" rx="8.54" ry="8.54"/>
    <path d="M90.46,77.71A7.55,7.55,0,0,1,98,85.25v5.21A7.55,7.55,0,0,1,90.46,98H9.54A7.55,7.55,0,0,1,2,90.46V85.25a7.55,7.55,0,0,1,7.54-7.54H90.46m0-2H9.54A9.57,9.57,0,0,0,0,85.25v5.21A9.57,9.57,0,0,0,9.54,100H90.46A9.57,9.57,0,0,0,100,90.46V85.25a9.57,9.57,0,0,0-9.54-9.54h0Z" transform="translate(0 0)"/>
  </g>
  <g id="bottom-2" data-name="bottom">
    <rect class="cls-1" x="1" y="38.86" width="98" height="22.29" rx="8.54" ry="8.54"/>
    <path d="M90.46,39.86A7.55,7.55,0,0,1,98,47.4V52.6a7.55,7.55,0,0,1-7.54,7.54H9.54A7.55,7.55,0,0,1,2,52.6V47.4a7.55,7.55,0,0,1,7.54-7.54H90.46m0-2H9.54A9.57,9.57,0,0,0,0,47.4V52.6a9.57,9.57,0,0,0,9.54,9.54H90.46A9.57,9.57,0,0,0,100,52.6V47.4a9.57,9.57,0,0,0-9.54-9.54h0Z" transform="translate(0 0)"/>
  </g>
  <g id="bottom-3" data-name="bottom">
    <rect class="cls-1" x="1" y="1" width="98" height="22.29" rx="8.54" ry="8.54"/>
    <path d="M90.46,2A7.55,7.55,0,0,1,98,9.54v5.21a7.55,7.55,0,0,1-7.54,7.54H9.54A7.55,7.55,0,0,1,2,14.75V9.54A7.55,7.55,0,0,1,9.54,2H90.46m0-2H9.54A9.57,9.57,0,0,0,0,9.54v5.21a9.57,9.57,0,0,0,9.54,9.54H90.46A9.57,9.57,0,0,0,100,14.75V9.54A9.57,9.57,0,0,0,90.46,0h0Z" transform="translate(0 0)"/>
  </g>
</svg>
