<?xml version="1.0" encoding="utf-8"?>
<!-- Generator: Adobe Illustrator 19.2.0, SVG Export Plug-In . SVG Version: 6.00 Build 0)  -->
<svg version="1.1" xmlns="http://www.w3.org/2000/svg" xmlns:xlink="http://www.w3.org/1999/xlink" x="0px" y="0px"
	 viewBox="0 0 1108 268.6" style="enable-background:new 0 0 1108 268.6;" xml:space="preserve">
<style type="text/css">
	.st0{fill:#1A1A1A;}
	.st1{fill:#333333;}
	.st2{fill:#F7F6F5;stroke:#000000;stroke-miterlimit:10;}
</style>
<g id="_x2D_1">
	<path class="st0" d="M20.8,4.7H4.3v149h13.9c1.7,0,3.1-1.6,3.1-3.3V5.1C21.3,4.8,21.1,4.7,20.8,4.7z"/>
	<path class="st1" d="M20.8,4.7h-1c0.3,0,0.5,0.1,0.5,0.4v145.7c0,1.7-1.4,2.8-3.1,2.8H4.3v12h16.4c0.3,0,0.6-0.8,0.6-1.1V5.1
		C21.3,4.8,21,4.7,20.8,4.7z"/>
</g>
<g id="_x30_">
	<path class="st2" d="M52,5.2H21.8v158.7c0,0.6-0.7,1.3-1.4,1.3H4.8V262c0,0.6,0.5,1.2,1.2,1.2h46c0.6,0,0.8-0.5,0.8-1.2V6.3
		C52.8,5.7,52.7,5.2,52,5.2z"/>
</g>
<g id="_x31_">
	<path class="st2" d="M87.4,165.2c-0.6,0-1.6-0.8-1.6-1.4V5.2h-30c-0.6,0-1,0.6-1,1.2V262c0,0.6,0.3,1.2,1,1.2h46c0.6,0,1-0.5,1-1.2
		v-96.8H87.4z"/>
</g>
<g id="_x32_">
	<g>
		<path class="st1" d="M111.8,4.7h-1c0.3,0,0.5,0.1,0.5,0.4v145.3c0,1.7-1.4,3.3-3.1,3.3H90.5c-1.7,0-3.2-1.6-3.2-3.3V5.1
			c0-0.3,0.4-0.4,0.7-0.4h-1c-0.3,0-0.7,0.1-0.7,0.4v159c0,0.3,0.4,0.6,0.7,0.6h24.8c0.3,0,0.6-0.3,0.6-0.6V5.1
			C112.3,4.8,112,4.7,111.8,4.7z"/>
		<path class="st0" d="M87.3,5.1v145.3c0,1.7,1.5,3.3,3.2,3.3h17.7c1.7,0,3.1-1.6,3.1-3.3V5.1c0-0.3-0.2-0.4-0.5-0.4H88
			C87.7,4.7,87.3,4.8,87.3,5.1z"/>
	</g>
</g>
<g id="_x33_">
	<path class="st2" d="M145,165.2h-3.8c-0.6,0-1.3-0.8-1.3-1.5V5.2h-27v158.7c0,0.6-0.6,1.3-1.2,1.3h-6.8V262c0,0.6,0.2,1.2,0.8,1.2
		h46c0.6,0,1.2-0.5,1.2-1.2v-96.8h-7.3C145.2,165.2,145.1,165.2,145,165.2z"/>
</g>
<g id="_x34_">
	<g>
		<path class="st1" d="M165.8,4.7h-1c0.3,0,0.5,0.1,0.5,0.4v145.3c0,1.7-1.4,3.3-3.1,3.3h-17.7c-1.7,0-3.2-1.6-3.2-3.3V5.1
			c0-0.3,0.4-0.4,0.7-0.4h-1c-0.3,0-0.7,0.1-0.7,0.4v159c0,0.3,0.4,0.6,0.7,0.6h24.8c0.3,0,0.6-0.3,0.6-0.6V5.1
			C166.3,4.8,166,4.7,165.8,4.7z"/>
		<path class="st0" d="M141.3,5.1v145.3c0,1.7,1.5,3.3,3.2,3.3h17.7c1.7,0,3.1-1.6,3.1-3.3V5.1c0-0.3-0.2-0.4-0.5-0.4H142
			C141.7,4.7,141.3,4.8,141.3,5.1z"/>
	</g>
</g>
<g id="_x35_">
	<path class="st2" d="M196.1,165.2c-0.7,0-1.3-0.6-1.3-1.3V5.5c0-0.2-0.2-0.4-0.4-0.4h-27.2c-0.2,0-0.4,0.2-0.4,0.4v157.9
		c0,0.9-0.8,1.7-1.7,1.7h-9.9c-0.2,0-0.4,0.2-0.4,0.4v96.1c0,0.9,0.7,1.6,1.6,1.6h44.9c0.9,0,1.6-0.7,1.6-1.6v-96.1
		c0-0.2-0.2-0.4-0.4-0.4H196.1z"/>
</g>
<g id="_x36_">
	<g>
		<path class="st1" d="M220.8,4.7h-1c0.3,0,0.5,0.1,0.5,0.4v145.3c0,1.7-1.4,3.3-3.1,3.3h-17.7c-1.7,0-3.2-1.6-3.2-3.3V5.1
			c0-0.3,0.4-0.4,0.7-0.4h-1c-0.3,0-0.7,0.1-0.7,0.4v159c0,0.3,0.4,0.6,0.7,0.6h24.8c0.3,0,0.6-0.3,0.6-0.6V5.1
			C221.3,4.8,221,4.7,220.8,4.7z"/>
		<path class="st0" d="M196.3,5.1v145.3c0,1.7,1.5,3.3,3.2,3.3h17.7c1.7,0,3.1-1.6,3.1-3.3V5.1c0-0.3-0.2-0.4-0.5-0.4H197
			C196.7,4.7,196.3,4.8,196.3,5.1z"/>
	</g>
</g>
<g id="_x37_">
	<path class="st2" d="M252,5.2h-30.2v158.7c0,0.6-0.7,1.3-1.3,1.3h-15.7V262c0,0.6,0.5,1.2,1.2,1.2h46c0.6,0,0.8-0.5,0.8-1.2V6.3
		C252.8,5.7,252.7,5.2,252,5.2z"/>
</g>
<g id="_x38_">
	<path class="st2" d="M287.4,165.2c-0.6,0-1.6-0.8-1.6-1.4V5.2h-30c-0.6,0-1,0.6-1,1.2V262c0,0.6,0.3,1.2,1,1.2h46
		c0.6,0,1-0.5,1-1.2v-96.8H287.4z"/>
</g>
<g id="_x39_">
	<g>
		<path class="st1" d="M311.8,4.7h-1c0.3,0,0.5,0.1,0.5,0.4v145.3c0,1.7-1.4,3.3-3.1,3.3h-17.7c-1.7,0-3.2-1.6-3.2-3.3V5.1
			c0-0.3,0.4-0.4,0.7-0.4h-1c-0.3,0-0.7,0.1-0.7,0.4v159c0,0.3,0.4,0.6,0.7,0.6h24.8c0.3,0,0.6-0.3,0.6-0.6V5.1
			C312.3,4.8,312,4.7,311.8,4.7z"/>
		<path class="st0" d="M287.3,5.1v145.3c0,1.7,1.5,3.3,3.2,3.3h17.7c1.7,0,3.1-1.6,3.1-3.3V5.1c0-0.3-0.2-0.4-0.5-0.4H288
			C287.7,4.7,287.3,4.8,287.3,5.1z"/>
	</g>
</g>
<g id="_x31_0">
	<path class="st2" d="M346.3,165.2c-0.8,0-1.5-0.7-1.5-1.5V5.9c0-0.4-0.4-0.8-0.8-0.8h-30.4c-0.4,0-0.8,0.4-0.8,0.8V163
		c0,1.2-1,2.1-2.1,2.1h-5.1c-0.4,0-0.8,0.4-0.8,0.8v95.6c0,0.9,0.7,1.6,1.6,1.6h44.4c1.1,0,2-0.9,2-2v-95.2c0-0.4-0.4-0.8-0.8-0.8
		H346.3z"/>
</g>
<g id="_x31_1">
	<g>
		<path class="st1" d="M370.8,4.7h-1c0.3,0,0.5,0.1,0.5,0.4v145.3c0,1.7-1.4,3.3-3.1,3.3h-17.7c-1.7,0-3.2-1.6-3.2-3.3V5.1
			c0-0.3,0.4-0.4,0.7-0.4h-1c-0.3,0-0.7,0.1-0.7,0.4v159c0,0.3,0.4,0.6,0.7,0.6h24.8c0.3,0,0.6-0.3,0.6-0.6V5.1
			C371.3,4.8,371,4.7,370.8,4.7z"/>
		<path class="st0" d="M346.3,5.1v145.3c0,1.7,1.5,3.3,3.2,3.3h17.7c1.7,0,3.1-1.6,3.1-3.3V5.1c0-0.3-0.2-0.4-0.5-0.4H347
			C346.7,4.7,346.3,4.8,346.3,5.1z"/>
	</g>
</g>
<g id="_x31_2">
	<path class="st2" d="M402,5.2h-30.2v158.7c0,0.6-0.7,1.3-1.4,1.3h-15.6V262c0,0.6,0.5,1.2,1.2,1.2h46c0.6,0,0.8-0.5,0.8-1.2V6.3
		C402.8,5.7,402.7,5.2,402,5.2z"/>
</g>
<g id="_x31_3">
	<path class="st2" d="M437.4,165.2c-0.6,0-1.6-0.8-1.6-1.4V5.2h-30c-0.6,0-1,0.6-1,1.2V262c0,0.6,0.3,1.2,1,1.2h46
		c0.6,0,1-0.5,1-1.2v-96.8H437.4z"/>
</g>
<g id="_x31_4">
	<g>
		<path class="st1" d="M461.8,4.7h-1c0.3,0,0.5,0.1,0.5,0.4v145.3c0,1.7-1.4,3.3-3.1,3.3h-17.7c-1.7,0-3.2-1.6-3.2-3.3V5.1
			c0-0.3,0.4-0.4,0.7-0.4h-1c-0.3,0-0.7,0.1-0.7,0.4v159c0,0.3,0.4,0.6,0.7,0.6h24.8c0.3,0,0.6-0.3,0.6-0.6V5.1
			C462.3,4.8,462,4.7,461.8,4.7z"/>
		<path class="st0" d="M437.3,5.1v145.3c0,1.7,1.5,3.3,3.2,3.3h17.7c1.7,0,3.1-1.6,3.1-3.3V5.1c0-0.3-0.2-0.4-0.5-0.4H438
			C437.7,4.7,437.3,4.8,437.3,5.1z"/>
	</g>
</g>
<g id="_x31_5">
	<path class="st2" d="M495,165.2h-3.8c-0.6,0-1.3-0.8-1.3-1.5V5.2h-27v158.7c0,0.6-0.6,1.3-1.2,1.3h-6.8V262c0,0.6,0.2,1.2,0.8,1.2
		h46c0.6,0,1.2-0.5,1.2-1.2v-96.8h-7.3C495.2,165.2,495.1,165.2,495,165.2z"/>
</g>
<g id="_x31_6">
	<g>
		<path class="st1" d="M515.8,4.7h-1c0.3,0,0.5,0.1,0.5,0.4v145.3c0,1.7-1.4,3.3-3.1,3.3h-17.7c-1.7,0-3.2-1.6-3.2-3.3V5.1
			c0-0.3,0.4-0.4,0.7-0.4h-1c-0.3,0-0.7,0.1-0.7,0.4v159c0,0.3,0.4,0.6,0.7,0.6h24.8c0.3,0,0.6-0.3,0.6-0.6V5.1
			C516.3,4.8,516,4.7,515.8,4.7z"/>
		<path class="st0" d="M491.3,5.1v145.3c0,1.7,1.5,3.3,3.2,3.3h17.7c1.7,0,3.1-1.6,3.1-3.3V5.1c0-0.3-0.2-0.4-0.5-0.4H492
			C491.7,4.7,491.3,4.8,491.3,5.1z"/>
	</g>
</g>
<g id="_x31_7">
	<path class="st2" d="M546.1,165.2c-0.7,0-1.3-0.6-1.3-1.3V5.5c0-0.2-0.2-0.4-0.4-0.4h-27.2c-0.2,0-0.4,0.2-0.4,0.4v157.9
		c0,0.9-0.8,1.7-1.7,1.7h-9.9c-0.2,0-0.4,0.2-0.4,0.4v96.1c0,0.9,0.7,1.6,1.6,1.6h44.9c0.9,0,1.6-0.7,1.6-1.6v-96.1
		c0-0.2-0.2-0.4-0.4-0.4H546.1z"/>
</g>
<g id="_x31_8">
	<g>
		<path class="st1" d="M570.8,4.7h-1c0.3,0,0.5,0.1,0.5,0.4v145.3c0,1.7-1.4,3.3-3.1,3.3h-17.7c-1.7,0-3.2-1.6-3.2-3.3V5.1
			c0-0.3,0.4-0.4,0.7-0.4h-1c-0.3,0-0.7,0.1-0.7,0.4v159c0,0.3,0.4,0.6,0.7,0.6h24.8c0.3,0,0.6-0.3,0.6-0.6V5.1
			C571.3,4.8,571,4.7,570.8,4.7z"/>
		<path class="st0" d="M546.3,5.1v145.3c0,1.7,1.5,3.3,3.2,3.3h17.7c1.7,0,3.1-1.6,3.1-3.3V5.1c0-0.3-0.2-0.4-0.5-0.4H547
			C546.7,4.7,546.3,4.8,546.3,5.1z"/>
	</g>
</g>
<g id="_x31_9">
	<path class="st2" d="M602,5.2h-30.2v158.7c0,0.6-0.7,1.3-1.3,1.3h-15.7V262c0,0.6,0.5,1.2,1.2,1.2h46c0.6,0,0.8-0.5,0.8-1.2V6.3
		C602.8,5.7,602.7,5.2,602,5.2z"/>
</g>
<g id="_x32_0">
	<path class="st2" d="M637.4,165.2c-0.6,0-1.6-0.8-1.6-1.4V5.2h-30c-0.6,0-1,0.6-1,1.2V262c0,0.6,0.3,1.2,1,1.2h46
		c0.6,0,1-0.5,1-1.2v-96.8H637.4z"/>
</g>
<g id="_x32_1">
	<g>
		<path class="st1" d="M661.8,4.7h-1c0.3,0,0.5,0.1,0.5,0.4v145.3c0,1.7-1.4,3.3-3.1,3.3h-17.7c-1.7,0-3.2-1.6-3.2-3.3V5.1
			c0-0.3,0.4-0.4,0.7-0.4h-1c-0.3,0-0.7,0.1-0.7,0.4v159c0,0.3,0.4,0.6,0.7,0.6h24.8c0.3,0,0.6-0.3,0.6-0.6V5.1
			C662.3,4.8,662,4.7,661.8,4.7z"/>
		<path class="st0" d="M637.3,5.1v145.3c0,1.7,1.5,3.3,3.2,3.3h17.7c1.7,0,3.1-1.6,3.1-3.3V5.1c0-0.3-0.2-0.4-0.5-0.4H638
			C637.7,4.7,637.3,4.8,637.3,5.1z"/>
	</g>
</g>
<g id="_x32_2">
	<path class="st2" d="M696.3,165.2c-0.8,0-1.5-0.7-1.5-1.5V5.9c0-0.4-0.4-0.8-0.8-0.8h-30.4c-0.4,0-0.8,0.4-0.8,0.8V163
		c0,1.2-1,2.1-2.1,2.1h-5.1c-0.4,0-0.8,0.4-0.8,0.8v95.6c0,0.9,0.7,1.6,1.6,1.6h44.4c1.1,0,2-0.9,2-2v-95.2c0-0.4-0.4-0.8-0.8-0.8
		H696.3z"/>
</g>
<g id="_x32_3">
	<g>
		<path class="st1" d="M720.8,4.7h-1c0.3,0,0.5,0.1,0.5,0.4v145.3c0,1.7-1.4,3.3-3.1,3.3h-17.7c-1.7,0-3.2-1.6-3.2-3.3V5.1
			c0-0.3,0.4-0.4,0.7-0.4h-1c-0.3,0-0.7,0.1-0.7,0.4v159c0,0.3,0.4,0.6,0.7,0.6h24.8c0.3,0,0.6-0.3,0.6-0.6V5.1
			C721.3,4.8,721,4.7,720.8,4.7z"/>
		<path class="st0" d="M696.3,5.1v145.3c0,1.7,1.5,3.3,3.2,3.3h17.7c1.7,0,3.1-1.6,3.1-3.3V5.1c0-0.3-0.2-0.4-0.5-0.4H697
			C696.7,4.7,696.3,4.8,696.3,5.1z"/>
	</g>
</g>
<g id="_x32_4">
	<path class="st2" d="M752,5.2h-30.2v158.7c0,0.6-0.7,1.3-1.4,1.3h-15.6V262c0,0.6,0.5,1.2,1.2,1.2h46c0.6,0,0.8-0.5,0.8-1.2V6.3
		C752.8,5.7,752.7,5.2,752,5.2z"/>
</g>
<g id="_x32_5">
	<path class="st2" d="M787.4,165.2c-0.6,0-1.6-0.8-1.6-1.4V5.2h-30c-0.6,0-1,0.6-1,1.2V262c0,0.6,0.3,1.2,1,1.2h46
		c0.6,0,1-0.5,1-1.2v-96.8H787.4z"/>
</g>
<g id="_x32_6">
	<g>
		<path class="st1" d="M811.8,4.7h-1c0.3,0,0.5,0.1,0.5,0.4v145.3c0,1.7-1.4,3.3-3.1,3.3h-17.7c-1.7,0-3.2-1.6-3.2-3.3V5.1
			c0-0.3,0.4-0.4,0.7-0.4h-1c-0.3,0-0.7,0.1-0.7,0.4v159c0,0.3,0.4,0.6,0.7,0.6h24.8c0.3,0,0.6-0.3,0.6-0.6V5.1
			C812.3,4.8,812,4.7,811.8,4.7z"/>
		<path class="st0" d="M787.3,5.1v145.3c0,1.7,1.5,3.3,3.2,3.3h17.7c1.7,0,3.1-1.6,3.1-3.3V5.1c0-0.3-0.2-0.4-0.5-0.4H788
			C787.7,4.7,787.3,4.8,787.3,5.1z"/>
	</g>
</g>
<g id="_x32_7">
	<path class="st2" d="M845,165.2h-3.8c-0.6,0-1.3-0.8-1.3-1.5V5.2h-27v158.7c0,0.6-0.6,1.3-1.2,1.3h-6.8V262c0,0.6,0.2,1.2,0.8,1.2
		h46c0.6,0,1.2-0.5,1.2-1.2v-96.8h-7.3C845.2,165.2,845.1,165.2,845,165.2z"/>
</g>
<g id="_x32_8">
	<g>
		<path class="st1" d="M865.8,4.7h-1c0.3,0,0.5,0.1,0.5,0.4v145.3c0,1.7-1.4,3.3-3.1,3.3h-17.7c-1.7,0-3.2-1.6-3.2-3.3V5.1
			c0-0.3,0.4-0.4,0.7-0.4h-1c-0.3,0-0.7,0.1-0.7,0.4v159c0,0.3,0.4,0.6,0.7,0.6h24.8c0.3,0,0.6-0.3,0.6-0.6V5.1
			C866.3,4.8,866,4.7,865.8,4.7z"/>
		<path class="st0" d="M841.3,5.1v145.3c0,1.7,1.5,3.3,3.2,3.3h17.7c1.7,0,3.1-1.6,3.1-3.3V5.1c0-0.3-0.2-0.4-0.5-0.4H842
			C841.7,4.7,841.3,4.8,841.3,5.1z"/>
	</g>
</g>
<g id="_x32_9">
	<path class="st2" d="M896.1,165.2c-0.7,0-1.3-0.6-1.3-1.3V5.5c0-0.2-0.2-0.4-0.4-0.4h-27.2c-0.2,0-0.4,0.2-0.4,0.4v157.9
		c0,0.9-0.8,1.7-1.7,1.7h-9.9c-0.2,0-0.4,0.2-0.4,0.4v96.1c0,0.9,0.7,1.6,1.6,1.6h44.9c0.9,0,1.6-0.7,1.6-1.6v-96.1
		c0-0.2-0.2-0.4-0.4-0.4H896.1z"/>
</g>
<g id="_x33_0">
	<g>
		<path class="st1" d="M920.8,4.7h-1c0.3,0,0.5,0.1,0.5,0.4v145.3c0,1.7-1.4,3.3-3.1,3.3h-17.7c-1.7,0-3.2-1.6-3.2-3.3V5.1
			c0-0.3,0.4-0.4,0.7-0.4h-1c-0.3,0-0.7,0.1-0.7,0.4v159c0,0.3,0.4,0.6,0.7,0.6h24.8c0.3,0,0.6-0.3,0.6-0.6V5.1
			C921.3,4.8,921,4.7,920.8,4.7z"/>
		<path class="st0" d="M896.3,5.1v145.3c0,1.7,1.5,3.3,3.2,3.3h17.7c1.7,0,3.1-1.6,3.1-3.3V5.1c0-0.3-0.2-0.4-0.5-0.4H897
			C896.7,4.7,896.3,4.8,896.3,5.1z"/>
	</g>
</g>
<g id="_x33_1">
	<path class="st2" d="M952,5.2h-30.2v158.7c0,0.6-0.7,1.3-1.3,1.3h-15.7V262c0,0.6,0.5,1.2,1.2,1.2h46c0.6,0,0.8-0.5,0.8-1.2V6.3
		C952.8,5.7,952.7,5.2,952,5.2z"/>
</g>
<g id="_x33_2">
	<path class="st2" d="M987.4,165.2c-0.6,0-1.6-0.8-1.6-1.4V5.2h-30c-0.6,0-1,0.6-1,1.2V262c0,0.6,0.3,1.2,1,1.2h46
		c0.6,0,1-0.5,1-1.2v-96.8H987.4z"/>
</g>
<g id="_x33_3">
	<g>
		<path class="st1" d="M1011.8,4.7h-1c0.3,0,0.5,0.1,0.5,0.4v145.3c0,1.7-1.4,3.3-3.1,3.3h-17.7c-1.7,0-3.2-1.6-3.2-3.3V5.1
			c0-0.3,0.4-0.4,0.7-0.4h-1c-0.3,0-0.7,0.1-0.7,0.4v159c0,0.3,0.4,0.6,0.7,0.6h24.8c0.3,0,0.6-0.3,0.6-0.6V5.1
			C1012.3,4.8,1012,4.7,1011.8,4.7z"/>
		<path class="st0" d="M987.3,5.1v145.3c0,1.7,1.5,3.3,3.2,3.3h17.7c1.7,0,3.1-1.6,3.1-3.3V5.1c0-0.3-0.2-0.4-0.5-0.4H988
			C987.7,4.7,987.3,4.8,987.3,5.1z"/>
	</g>
</g>
<g id="_x33_4">
	<path class="st2" d="M1046.3,165.2c-0.8,0-1.5-0.7-1.5-1.5V5.9c0-0.4-0.4-0.8-0.8-0.8h-30.4c-0.4,0-0.8,0.4-0.8,0.8V163
		c0,1.2-1,2.1-2.1,2.1h-5.1c-0.4,0-0.8,0.4-0.8,0.8v95.6c0,0.9,0.7,1.6,1.6,1.6h44.4c1.1,0,2-0.9,2-2v-95.2c0-0.4-0.4-0.8-0.8-0.8
		H1046.3z"/>
</g>
<g id="_x33_5">
	<g>
		<path class="st1" d="M1070.8,4.7h-1c0.3,0,0.5,0.1,0.5,0.4v145.3c0,1.7-1.4,3.3-3.1,3.3h-17.7c-1.7,0-3.2-1.6-3.2-3.3V5.1
			c0-0.3,0.4-0.4,0.7-0.4h-1c-0.3,0-0.7,0.1-0.7,0.4v159c0,0.3,0.4,0.6,0.7,0.6h24.8c0.3,0,0.6-0.3,0.6-0.6V5.1
			C1071.3,4.8,1071,4.7,1070.8,4.7z"/>
		<path class="st0" d="M1046.3,5.1v145.3c0,1.7,1.5,3.3,3.2,3.3h17.7c1.7,0,3.1-1.6,3.1-3.3V5.1c0-0.3-0.2-0.4-0.5-0.4H1047
			C1046.7,4.7,1046.3,4.8,1046.3,5.1z"/>
	</g>
</g>
<g id="_x33_6">
	<path class="st2" d="M1102,5.2h-30.2v158.7c0,0.6-0.7,1.3-1.4,1.3h-15.6V262c0,0.6,0.5,1.2,1.2,1.2h46c0.6,0,0.8-0.5,0.8-1.2V6.3
		C1102.8,5.7,1102.7,5.2,1102,5.2z"/>
</g>
</svg>
