<svg id="_-1" data-name="-1" xmlns="http://www.w3.org/2000/svg" viewBox="0 0 1099 259">
  <defs>
    <style>
    </style>
  </defs>
  <title>piano</title>
  <path class="p-cls-1" d="M20.8,4.65H4.32v149H18.24a3.29,3.29,0,0,0,3.08-3.3V5.07A0.45,0.45,0,0,0,20.8,4.65Z" transform="translate(-4.32 -4.65)"/>
  <path class="p-cls-2" d="M20.75,4.65h-1a0.45,0.45,0,0,1,.52.42V150.81a2.9,2.9,0,0,1-3.08,2.85H4.32v12H20.75a1.42,1.42,0,0,0,.57-1.12V5.08A0.49,0.49,0,0,0,20.75,4.65Z" transform="translate(-4.32 -4.65)"/>
  <path ng-class="{keyactive:guitar.string1 === 0}" class="p-cls-3" d="M52,5.15H21.82V163.8a1.51,1.51,0,0,1-1.36,1.35H4.82V262A1.19,1.19,0,0,0,6,263.15H52c0.65,0,.8-0.55.8-1.19V6.35C52.82,5.7,52.67,5.15,52,5.15Z" transform="translate(-4.32 -4.65)"/>
  <path ng-class="{keyactive:guitar.string1 === 1}" class="p-cls-3" d="M87.44,165.15a1.88,1.88,0,0,1-1.62-1.44V5.15h-30a1.06,1.06,0,0,0-1,1.21V262a1,1,0,0,0,1,1.18h46a1,1,0,0,0,1-1.18V165.15H87.44Z" transform="translate(-4.32 -4.65)"/>
  <g>
    <path ng-class="{keyactive:guitar.string1 === 2}" class="p-cls-2" d="M111.75,4.65h-1a0.45,0.45,0,0,1,.52.42V150.35a3.29,3.29,0,0,1-3.08,3.3H90.55a3.42,3.42,0,0,1-3.23-3.3V5.06A0.6,0.6,0,0,1,88,4.65H87a0.61,0.61,0,0,0-.68.42V164a0.76,0.76,0,0,0,.68.61h24.75a0.65,0.65,0,0,0,.57-0.61V5.08A0.49,0.49,0,0,0,111.75,4.65Z" transform="translate(-4.32 -4.65)"/>
    <path ng-class="{keyshadowactive:guitar.string1 === 2}" class="p-cls-1" d="M87.32,5.06V150.35a3.42,3.42,0,0,0,3.23,3.3h17.69a3.29,3.29,0,0,0,3.08-3.3V5.07a0.45,0.45,0,0,0-.52-0.42H88A0.6,0.6,0,0,0,87.32,5.06Z" transform="translate(-4.32 -4.65)"/>
  </g>
  <path ng-class="{keyactive:guitar.string1 === 3}" class="p-cls-3" d="M145,165.15h-3.84a1.6,1.6,0,0,1-1.32-1.47V5.15h-27V163.8a1.36,1.36,0,0,1-1.21,1.35h-6.79V262c0,0.65.17,1.18,0.82,1.18h46a1.17,1.17,0,0,0,1.16-1.18V165.15H145Z" transform="translate(-4.32 -4.65)"/>
  <g>
    <path ng-class="{keyactive:guitar.string1 === 4}" class="p-cls-2" d="M165.75,4.65h-1a0.45,0.45,0,0,1,.52.42V150.35a3.29,3.29,0,0,1-3.08,3.3H144.55a3.42,3.42,0,0,1-3.23-3.3V5.06a0.6,0.6,0,0,1,.66-0.4h-1a0.61,0.61,0,0,0-.68.42V164a0.76,0.76,0,0,0,.68.61h24.75a0.65,0.65,0,0,0,.57-0.61V5.08A0.49,0.49,0,0,0,165.75,4.65Z" transform="translate(-4.32 -4.65)"/>
    <path ng-class="{keyshadowactive:guitar.string1 === 4}" class="p-cls-1" d="M141.32,5.06V150.35a3.42,3.42,0,0,0,3.23,3.3h17.69a3.29,3.29,0,0,0,3.08-3.3V5.07a0.45,0.45,0,0,0-.52-0.42H142A0.6,0.6,0,0,0,141.32,5.06Z" transform="translate(-4.32 -4.65)"/>
  </g>
  <path ng-class="{keyactive:guitar.string1 === 5 || guitar.string2 === 0}" class="p-cls-3" d="M196.14,165.15a1.32,1.32,0,0,1-1.32-1.32V5.53a0.38,0.38,0,0,0-.38-0.38H167.2a0.38,0.38,0,0,0-.38.38V163.45a1.71,1.71,0,0,1-1.7,1.7H155.2a0.38,0.38,0,0,0-.38.38v96.05a1.57,1.57,0,0,0,1.57,1.57h44.86a1.57,1.57,0,0,0,1.57-1.57V165.53a0.38,0.38,0,0,0-.38-0.38h-6.31Z" transform="translate(-4.32 -4.65)"/>
  <g>
    <path ng-class="{keyactive:guitar.string1 === 6 || guitar.string2 === 1}" class="p-cls-2" d="M220.75,4.65h-1a0.45,0.45,0,0,1,.52.42V150.35a3.29,3.29,0,0,1-3.08,3.3H199.55a3.42,3.42,0,0,1-3.23-3.3V5.06a0.6,0.6,0,0,1,.66-0.4h-1a0.61,0.61,0,0,0-.68.42V164a0.76,0.76,0,0,0,.68.61h24.75a0.65,0.65,0,0,0,.57-0.61V5.08A0.49,0.49,0,0,0,220.75,4.65Z" transform="translate(-4.32 -4.65)"/>
    <path ng-class="{keyshadowactive:guitar.string1 === 6 || guitar.string2 === 1}" class="p-cls-1" d="M196.32,5.06V150.35a3.42,3.42,0,0,0,3.23,3.3h17.69a3.29,3.29,0,0,0,3.08-3.3V5.07a0.45,0.45,0,0,0-.52-0.42H197A0.6,0.6,0,0,0,196.32,5.06Z" transform="translate(-4.32 -4.65)"/>
  </g>
  <path ng-class="{keyactive:guitar.string1 === 7 || guitar.string2 === 2}" class="p-cls-3" d="M252,5.15h-30.2V163.82a1.46,1.46,0,0,1-1.33,1.33H204.82V262a1.19,1.19,0,0,0,1.17,1.19h46c0.65,0,.8-0.55.8-1.19V6.35C252.82,5.7,252.67,5.15,252,5.15Z" transform="translate(-4.32 -4.65)"/>
  <path ng-class="{keyactive:guitar.string1 === 8 || guitar.string2 === 3}" class="p-cls-3" d="M287.44,165.15a1.88,1.88,0,0,1-1.62-1.44V5.15h-30a1.06,1.06,0,0,0-1,1.21V262a1,1,0,0,0,1,1.18h46a1,1,0,0,0,1-1.18V165.15H287.44Z" transform="translate(-4.32 -4.65)"/>
  <g>
    <path ng-class="{keyactive:guitar.string1 === 9 || guitar.string2 === 4}" class="p-cls-2" d="M311.75,4.65h-1a0.45,0.45,0,0,1,.52.42V150.35a3.29,3.29,0,0,1-3.08,3.3H290.55a3.42,3.42,0,0,1-3.23-3.3V5.06a0.6,0.6,0,0,1,.66-0.4h-1a0.61,0.61,0,0,0-.68.42V164a0.76,0.76,0,0,0,.68.61h24.75a0.65,0.65,0,0,0,.57-0.61V5.08A0.49,0.49,0,0,0,311.75,4.65Z" transform="translate(-4.32 -4.65)"/>
    <path ng-class="{keyshadowactive:guitar.string1 === 9 || guitar.string2 === 4}" class="p-cls-1" d="M287.32,5.06V150.35a3.42,3.42,0,0,0,3.23,3.3h17.69a3.29,3.29,0,0,0,3.08-3.3V5.07a0.45,0.45,0,0,0-.52-0.42H288A0.6,0.6,0,0,0,287.32,5.06Z" transform="translate(-4.32 -4.65)"/>
  </g>
  <path ng-class="{keyactive:guitar.string1 === 10 || guitar.string2 === 5 || guitar.string3 === 0}" class="p-cls-3" d="M346.3,165.15a1.48,1.48,0,0,1-1.48-1.48V5.95a0.8,0.8,0,0,0-.8-0.8h-30.4a0.8,0.8,0,0,0-.8.8V163a2.15,2.15,0,0,1-2.15,2.15h-5.06a0.8,0.8,0,0,0-.8.8v95.59a1.62,1.62,0,0,0,1.61,1.61h44.43a2,2,0,0,0,2-2V165.95a0.8,0.8,0,0,0-.8-0.8H346.3Z" transform="translate(-4.32 -4.65)"/>
  <g>
    <path ng-class="{keyactive:guitar.string1 === 11 || guitar.string2 === 6 || guitar.string3 === 1}" class="p-cls-2" d="M370.75,4.65h-1a0.45,0.45,0,0,1,.52.42V150.35a3.29,3.29,0,0,1-3.08,3.3H349.55a3.42,3.42,0,0,1-3.23-3.3V5.06a0.6,0.6,0,0,1,.66-0.4h-1a0.61,0.61,0,0,0-.68.42V164a0.76,0.76,0,0,0,.68.61h24.75a0.65,0.65,0,0,0,.57-0.61V5.08A0.49,0.49,0,0,0,370.75,4.65Z" transform="translate(-4.32 -4.65)"/>
    <path ng-class="{keyshadowactive:guitar.string1 === 11 || guitar.string2 === 6 || guitar.string3 === 1}" class="p-cls-1" d="M346.32,5.06V150.35a3.42,3.42,0,0,0,3.23,3.3h17.69a3.29,3.29,0,0,0,3.08-3.3V5.07a0.45,0.45,0,0,0-.52-0.42H347A0.6,0.6,0,0,0,346.32,5.06Z" transform="translate(-4.32 -4.65)"/>
  </g>
  <path ng-class="{keyactive:guitar.string2 === 7 || guitar.string3 === 2}" class="p-cls-3" d="M402,5.15h-30.2V163.8a1.51,1.51,0,0,1-1.36,1.35H354.82V262a1.19,1.19,0,0,0,1.17,1.19h46c0.65,0,.8-0.55.8-1.19V6.35C402.82,5.7,402.67,5.15,402,5.15Z" transform="translate(-4.32 -4.65)"/>
  <path ng-class="{keyactive:guitar.string2 === 8 || guitar.string3 === 3}" class="p-cls-3" d="M437.44,165.15a1.88,1.88,0,0,1-1.62-1.44V5.15h-30a1.06,1.06,0,0,0-1,1.21V262a1,1,0,0,0,1,1.18h46a1,1,0,0,0,1-1.18V165.15H437.44Z" transform="translate(-4.32 -4.65)"/>
  <g>
    <path ng-class="{keyactive:guitar.string2 === 9 || guitar.string3 === 4}" class="p-cls-2" d="M461.75,4.65h-1a0.45,0.45,0,0,1,.52.42V150.35a3.29,3.29,0,0,1-3.08,3.3H440.55a3.42,3.42,0,0,1-3.23-3.3V5.06a0.6,0.6,0,0,1,.66-0.4h-1a0.61,0.61,0,0,0-.68.42V164a0.76,0.76,0,0,0,.68.61h24.75a0.65,0.65,0,0,0,.57-0.61V5.08A0.49,0.49,0,0,0,461.75,4.65Z" transform="translate(-4.32 -4.65)"/>
    <path ng-class="{keyshadowactive:guitar.string2 === 9 || guitar.string3 === 4}" class="p-cls-1" d="M437.32,5.06V150.35a3.42,3.42,0,0,0,3.23,3.3h17.69a3.29,3.29,0,0,0,3.08-3.3V5.07a0.45,0.45,0,0,0-.52-0.42H438A0.6,0.6,0,0,0,437.32,5.06Z" transform="translate(-4.32 -4.65)"/>
  </g>
  <path ng-class="{keyactive:guitar.string2 === 10 || guitar.string3 === 5 || guitar.string4 === 0}" class="p-cls-3" d="M495,165.15h-3.84a1.6,1.6,0,0,1-1.32-1.47V5.15h-27V163.8a1.36,1.36,0,0,1-1.21,1.35h-6.79V262c0,0.65.17,1.18,0.82,1.18h46a1.17,1.17,0,0,0,1.16-1.18V165.15H495Z" transform="translate(-4.32 -4.65)"/>
  <g>
    <path ng-class="{keyactive:guitar.string2 === 11 || guitar.string3 === 6 || guitar.string4 === 1}" class="p-cls-2" d="M515.75,4.65h-1a0.45,0.45,0,0,1,.52.42V150.35a3.29,3.29,0,0,1-3.08,3.3H494.55a3.42,3.42,0,0,1-3.23-3.3V5.06a0.6,0.6,0,0,1,.66-0.4h-1a0.61,0.61,0,0,0-.68.42V164a0.76,0.76,0,0,0,.68.61h24.75a0.65,0.65,0,0,0,.57-0.61V5.08A0.49,0.49,0,0,0,515.75,4.65Z" transform="translate(-4.32 -4.65)"/>
    <path ng-class="{keyshadowactive:guitar.string2 === 11 || guitar.string3 === 6 || guitar.string4 === 1}" class="p-cls-1" d="M491.32,5.06V150.35a3.42,3.42,0,0,0,3.23,3.3h17.69a3.29,3.29,0,0,0,3.08-3.3V5.07a0.45,0.45,0,0,0-.52-0.42H492A0.6,0.6,0,0,0,491.32,5.06Z" transform="translate(-4.32 -4.65)"/>
  </g>
  <path ng-class="{keyactive:guitar.string3 === 7 || guitar.string4 === 2}" class="p-cls-3" d="M546.14,165.15a1.32,1.32,0,0,1-1.32-1.32V5.53a0.38,0.38,0,0,0-.38-0.38H517.2a0.38,0.38,0,0,0-.38.38V163.45a1.71,1.71,0,0,1-1.7,1.7H505.2a0.38,0.38,0,0,0-.38.38v96.05a1.57,1.57,0,0,0,1.57,1.57h44.86a1.57,1.57,0,0,0,1.57-1.57V165.53a0.38,0.38,0,0,0-.38-0.38h-6.31Z" transform="translate(-4.32 -4.65)"/>
  <g>
    <path ng-class="{keyactive:guitar.string3 === 8 || guitar.string4 === 3}" class="p-cls-2" d="M570.75,4.65h-1a0.45,0.45,0,0,1,.52.42V150.35a3.29,3.29,0,0,1-3.08,3.3H549.55a3.42,3.42,0,0,1-3.23-3.3V5.06a0.6,0.6,0,0,1,.66-0.4h-1a0.61,0.61,0,0,0-.68.42V164a0.76,0.76,0,0,0,.68.61h24.75a0.65,0.65,0,0,0,.57-0.61V5.08A0.49,0.49,0,0,0,570.75,4.65Z" transform="translate(-4.32 -4.65)"/>
    <path ng-class="{keyshadowactive:guitar.string3 === 8 || guitar.string4 === 3}" class="p-cls-1" d="M546.32,5.06V150.35a3.42,3.42,0,0,0,3.23,3.3h17.69a3.29,3.29,0,0,0,3.08-3.3V5.07a0.45,0.45,0,0,0-.52-0.42H547A0.6,0.6,0,0,0,546.32,5.06Z" transform="translate(-4.32 -4.65)"/>
  </g>
  <path ng-class="{keyactive:guitar.string3 === 9 || guitar.string4 === 4 || guitar.string5 === 0}" class="p-cls-3" d="M602,5.15h-30.2V163.82a1.46,1.46,0,0,1-1.33,1.33H554.82V262a1.19,1.19,0,0,0,1.17,1.19h46c0.65,0,.8-0.55.8-1.19V6.35C602.82,5.7,602.67,5.15,602,5.15Z" transform="translate(-4.32 -4.65)"/>
  <path ng-class="{keyactive:guitar.string3 === 10 || guitar.string4 === 5 || guitar.string5 === 1}" class="p-cls-3" d="M637.44,165.15a1.88,1.88,0,0,1-1.62-1.44V5.15h-30a1.06,1.06,0,0,0-1,1.21V262a1,1,0,0,0,1,1.18h46a1,1,0,0,0,1-1.18V165.15H637.44Z" transform="translate(-4.32 -4.65)"/>
  <g>
    <path ng-class="{keyactive:guitar.string3 === 11 || guitar.string4 === 6 || guitar.string5 === 2}" class="p-cls-2" d="M661.75,4.65h-1a0.45,0.45,0,0,1,.52.42V150.35a3.29,3.29,0,0,1-3.08,3.3H640.55a3.42,3.42,0,0,1-3.23-3.3V5.06a0.6,0.6,0,0,1,.66-0.4h-1a0.61,0.61,0,0,0-.68.42V164a0.76,0.76,0,0,0,.68.61h24.75a0.65,0.65,0,0,0,.57-0.61V5.08A0.49,0.49,0,0,0,661.75,4.65Z" transform="translate(-4.32 -4.65)"/>
    <path ng-class="{keyshadowactive:guitar.string3 === 11 || guitar.string4 === 6 || guitar.string5 === 2}" class="p-cls-1" d="M637.32,5.06V150.35a3.42,3.42,0,0,0,3.23,3.3h17.69a3.29,3.29,0,0,0,3.08-3.3V5.07a0.45,0.45,0,0,0-.52-0.42H638A0.6,0.6,0,0,0,637.32,5.06Z" transform="translate(-4.32 -4.65)"/>
  </g>
  <path ng-class="{keyactive:guitar.string4 === 7 || guitar.string5 === 3}" class="p-cls-3" d="M696.3,165.15a1.48,1.48,0,0,1-1.48-1.48V5.95a0.8,0.8,0,0,0-.8-0.8h-30.4a0.8,0.8,0,0,0-.8.8V163a2.15,2.15,0,0,1-2.15,2.15h-5.06a0.8,0.8,0,0,0-.8.8v95.59a1.62,1.62,0,0,0,1.61,1.61h44.43a2,2,0,0,0,2-2V165.95a0.8,0.8,0,0,0-.8-0.8H696.3Z" transform="translate(-4.32 -4.65)"/>
  <g>
    <path ng-class="{keyactive:guitar.string4 === 8 || guitar.string5 === 4}" class="p-cls-2" d="M720.75,4.65h-1a0.45,0.45,0,0,1,.52.42V150.35a3.29,3.29,0,0,1-3.08,3.3H699.55a3.42,3.42,0,0,1-3.23-3.3V5.06a0.6,0.6,0,0,1,.66-0.4h-1a0.61,0.61,0,0,0-.68.42V164a0.76,0.76,0,0,0,.68.61h24.75a0.65,0.65,0,0,0,.57-0.61V5.08A0.49,0.49,0,0,0,720.75,4.65Z" transform="translate(-4.32 -4.65)"/>
    <path ng-class="{keyshadowactive:guitar.string4 === 8 || guitar.string5 === 4}" class="p-cls-1" d="M696.32,5.06V150.35a3.42,3.42,0,0,0,3.23,3.3h17.69a3.29,3.29,0,0,0,3.08-3.3V5.07a0.45,0.45,0,0,0-.52-0.42H697A0.6,0.6,0,0,0,696.32,5.06Z" transform="translate(-4.32 -4.65)"/>
  </g>
  <path ng-class="{keyactive:guitar.string4 === 9 || guitar.string5 === 5 || guitar.string6 === 0}" class="p-cls-3" d="M752,5.15h-30.2V163.8a1.51,1.51,0,0,1-1.36,1.35H704.82V262a1.19,1.19,0,0,0,1.17,1.19h46c0.65,0,.8-0.55.8-1.19V6.35C752.82,5.7,752.67,5.15,752,5.15Z" transform="translate(-4.32 -4.65)"/>
  <path ng-class="{keyactive:guitar.string4 === 10 || guitar.string5 === 6 || guitar.string6 === 1}" class="p-cls-3" d="M787.44,165.15a1.88,1.88,0,0,1-1.62-1.44V5.15h-30a1.06,1.06,0,0,0-1,1.21V262a1,1,0,0,0,1,1.18h46a1,1,0,0,0,1-1.18V165.15H787.44Z" transform="translate(-4.32 -4.65)"/>
  <g>
    <path ng-class="{keyactive:guitar.string4 === 11 || guitar.string5 === 7 || guitar.string6 === 2}" class="p-cls-2" d="M811.75,4.65h-1a0.45,0.45,0,0,1,.52.42V150.35a3.29,3.29,0,0,1-3.08,3.3H790.55a3.42,3.42,0,0,1-3.23-3.3V5.06a0.6,0.6,0,0,1,.66-0.4h-1a0.61,0.61,0,0,0-.68.42V164a0.76,0.76,0,0,0,.68.61h24.75a0.65,0.65,0,0,0,.57-0.61V5.08A0.49,0.49,0,0,0,811.75,4.65Z" transform="translate(-4.32 -4.65)"/>
    <path ng-class="{keyshadowactive:guitar.string4 === 11 || guitar.string5 === 7 || guitar.string6 === 2}" class="p-cls-1" d="M787.32,5.06V150.35a3.42,3.42,0,0,0,3.23,3.3h17.69a3.29,3.29,0,0,0,3.08-3.3V5.07a0.45,0.45,0,0,0-.52-0.42H788A0.6,0.6,0,0,0,787.32,5.06Z" transform="translate(-4.32 -4.65)"/>
  </g>
  <path ng-class="{keyactive:guitar.string5 === 8 || guitar.string6 === 3}" class="p-cls-3" d="M845,165.15h-3.84a1.6,1.6,0,0,1-1.32-1.47V5.15h-27V163.8a1.36,1.36,0,0,1-1.21,1.35h-6.79V262c0,0.65.17,1.18,0.82,1.18h46a1.17,1.17,0,0,0,1.16-1.18V165.15H845Z" transform="translate(-4.32 -4.65)"/>
  <g>
    <path ng-class="{keyactive:guitar.string5 === 9 || guitar.string6 === 4}" class="p-cls-2" d="M865.75,4.65h-1a0.45,0.45,0,0,1,.52.42V150.35a3.29,3.29,0,0,1-3.08,3.3H844.55a3.42,3.42,0,0,1-3.23-3.3V5.06a0.6,0.6,0,0,1,.66-0.4h-1a0.61,0.61,0,0,0-.68.42V164a0.76,0.76,0,0,0,.68.61h24.75a0.65,0.65,0,0,0,.57-0.61V5.08A0.49,0.49,0,0,0,865.75,4.65Z" transform="translate(-4.32 -4.65)"/>
    <path ng-class="{keyshadowactive:guitar.string5 === 9 || guitar.string6 === 4}" class="p-cls-1" d="M841.32,5.06V150.35a3.42,3.42,0,0,0,3.23,3.3h17.69a3.29,3.29,0,0,0,3.08-3.3V5.07a0.45,0.45,0,0,0-.52-0.42H842A0.6,0.6,0,0,0,841.32,5.06Z" transform="translate(-4.32 -4.65)"/>
  </g>
  <path ng-class="{keyactive:guitar.string5 === 10 || guitar.string6 === 5}" class="p-cls-3" d="M896.14,165.15a1.32,1.32,0,0,1-1.32-1.32V5.53a0.38,0.38,0,0,0-.38-0.38H867.2a0.38,0.38,0,0,0-.38.38V163.45a1.71,1.71,0,0,1-1.7,1.7H855.2a0.38,0.38,0,0,0-.38.38v96.05a1.57,1.57,0,0,0,1.57,1.57h44.86a1.57,1.57,0,0,0,1.57-1.57V165.53a0.38,0.38,0,0,0-.38-0.38h-6.31Z" transform="translate(-4.32 -4.65)"/>
  <g>
    <path ng-class="{keyactive:guitar.string5 === 11 || guitar.string6 === 6}" class="p-cls-2" d="M920.75,4.65h-1a0.45,0.45,0,0,1,.52.42V150.35a3.29,3.29,0,0,1-3.08,3.3H899.55a3.42,3.42,0,0,1-3.23-3.3V5.06a0.6,0.6,0,0,1,.66-0.4h-1a0.61,0.61,0,0,0-.68.42V164a0.76,0.76,0,0,0,.68.61h24.75a0.65,0.65,0,0,0,.57-0.61V5.08A0.49,0.49,0,0,0,920.75,4.65Z" transform="translate(-4.32 -4.65)"/>
    <path ng-class="{keyshadowactive:guitar.string5 === 11 || guitar.string6 === 6}" class="p-cls-1" d="M896.32,5.06V150.35a3.42,3.42,0,0,0,3.23,3.3h17.69a3.29,3.29,0,0,0,3.08-3.3V5.07a0.45,0.45,0,0,0-.52-0.42H897A0.6,0.6,0,0,0,896.32,5.06Z" transform="translate(-4.32 -4.65)"/>
  </g>
  <path ng-class="{keyactive:guitar.string6 === 7}" class="p-cls-3" d="M952,5.15h-30.2V163.82a1.46,1.46,0,0,1-1.33,1.33H904.82V262a1.19,1.19,0,0,0,1.17,1.19h46c0.65,0,.8-0.55.8-1.19V6.35C952.82,5.7,952.67,5.15,952,5.15Z" transform="translate(-4.32 -4.65)"/>
  <path ng-class="{keyactive:guitar.string6 === 8}" class="p-cls-3" d="M987.44,165.15a1.88,1.88,0,0,1-1.62-1.44V5.15h-30a1.06,1.06,0,0,0-1,1.21V262a1,1,0,0,0,1,1.18h46a1,1,0,0,0,1-1.18V165.15H987.44Z" transform="translate(-4.32 -4.65)"/>
  <g>
    <path ng-class="{keyactive:guitar.string6 === 9}" class="p-cls-2" d="M1011.75,4.65h-1a0.45,0.45,0,0,1,.52.42V150.35a3.29,3.29,0,0,1-3.08,3.3H990.55a3.42,3.42,0,0,1-3.23-3.3V5.06a0.6,0.6,0,0,1,.66-0.4h-1a0.61,0.61,0,0,0-.68.42V164a0.76,0.76,0,0,0,.68.61h24.75a0.65,0.65,0,0,0,.57-0.61V5.08A0.49,0.49,0,0,0,1011.75,4.65Z" transform="translate(-4.32 -4.65)"/>
    <path ng-class="{keyshadowactive:guitar.string6 === 9}" class="p-cls-1" d="M987.32,5.06V150.35a3.42,3.42,0,0,0,3.23,3.3h17.69a3.29,3.29,0,0,0,3.08-3.3V5.07a0.45,0.45,0,0,0-.52-0.42H988A0.6,0.6,0,0,0,987.32,5.06Z" transform="translate(-4.32 -4.65)"/>
  </g>
  <path ng-class="{keyactive:guitar.string6 === 10}" class="p-cls-3" d="M1046.3,165.15a1.48,1.48,0,0,1-1.48-1.48V5.95a0.8,0.8,0,0,0-.8-0.8h-30.4a0.8,0.8,0,0,0-.8.8V163a2.15,2.15,0,0,1-2.15,2.15h-5.06a0.8,0.8,0,0,0-.8.8v95.59a1.62,1.62,0,0,0,1.61,1.61h44.43a2,2,0,0,0,2-2V165.95a0.8,0.8,0,0,0-.8-0.8h-5.72Z" transform="translate(-4.32 -4.65)"/>
  <g>
    <path ng-class="{keyactive:guitar.string6 === 11}" class="p-cls-2" d="M1070.75,4.65h-1a0.45,0.45,0,0,1,.52.42V150.35a3.29,3.29,0,0,1-3.08,3.3h-17.69a3.42,3.42,0,0,1-3.23-3.3V5.06a0.6,0.6,0,0,1,.66-0.4h-1a0.61,0.61,0,0,0-.68.42V164a0.76,0.76,0,0,0,.68.61h24.75a0.65,0.65,0,0,0,.57-0.61V5.08A0.49,0.49,0,0,0,1070.75,4.65Z" transform="translate(-4.32 -4.65)"/>
    <path ng-class="{keyshadowactive:guitar.string6 === 11}" class="p-cls-1" d="M1046.32,5.06V150.35a3.42,3.42,0,0,0,3.23,3.3h17.69a3.29,3.29,0,0,0,3.08-3.3V5.07a0.45,0.45,0,0,0-.52-0.42H1047A0.6,0.6,0,0,0,1046.32,5.06Z" transform="translate(-4.32 -4.65)"/>
  </g>
  <path class="p-cls-3" d="M1102,5.15h-30.2V163.8a1.51,1.51,0,0,1-1.36,1.35h-15.64V262a1.19,1.19,0,0,0,1.17,1.19h46c0.65,0,.8-0.55.8-1.19V6.35C1102.82,5.7,1102.67,5.15,1102,5.15Z" transform="translate(-4.32 -4.65)"/>
</svg>
